<?xml version="1.0" encoding="utf-8"?>
<!-- Generator: Adobe Illustrator 24.3.0, SVG Export Plug-In . SVG Version: 6.00 Build 0)  -->
<svg version="1.1" xmlns="http://www.w3.org/2000/svg" xmlns:xlink="http://www.w3.org/1999/xlink" x="0px" y="0px"
	 viewBox="0 0 1000 741" style="enable-background:new 0 0 1000 741;" xml:space="preserve">
<style type="text/css">
	.st0{display:none;}
	.st1{display:inline;fill:url(#SVGID_1_);}
	.st2{display:inline;fill:url(#SVGID_2_);}
	.st3{display:inline;fill:url(#SVGID_3_);}
	.st4{display:inline;fill:url(#SVGID_4_);}
	.st5{display:inline;fill:url(#SVGID_5_);}
	.st6{display:inline;fill:url(#SVGID_6_);}
	.st7{display:inline;fill:url(#SVGID_7_);}
	.st8{display:inline;fill:url(#SVGID_8_);}
	.st9{display:inline;fill:url(#SVGID_9_);}
	.st10{display:inline;fill:url(#SVGID_10_);}
	.st11{display:inline;fill:url(#SVGID_11_);}
	.st12{display:inline;fill:url(#SVGID_12_);}
	.st13{fill:#9E9E9E;}
</style>
<g id="Слой_1" class="st0">
	<linearGradient id="SVGID_1_" gradientUnits="userSpaceOnUse" x1="20.5569" y1="49.8974" x2="60.6706" y2="49.8974">
		<stop  offset="0" style="stop-color:#FFFFFF"/>
		<stop  offset="1" style="stop-color:#000000"/>
	</linearGradient>
	<path class="st1" d="M41.9,100h-2.5c-10.4,0-18.8-8.4-18.8-18.8V18.6C20.6,8.2,29-0.2,39.4-0.2h2.5c10.4,0,18.8,8.4,18.8,18.8v62.7
		C60.7,91.6,52.2,100,41.9,100z"/>
	<linearGradient id="SVGID_2_" gradientUnits="userSpaceOnUse" x1="104.079" y1="49.8974" x2="144.1927" y2="49.8974">
		<stop  offset="0" style="stop-color:#FFFFFF"/>
		<stop  offset="1" style="stop-color:#000000"/>
	</linearGradient>
	<path class="st2" d="M125.4,100h-2.5c-10.4,0-18.8-8.4-18.8-18.8V18.6c0-10.4,8.4-18.8,18.8-18.8h2.5c10.4,0,18.8,8.4,18.8,18.8
		v62.7C144.2,91.6,135.8,100,125.4,100z"/>
	<linearGradient id="SVGID_3_" gradientUnits="userSpaceOnUse" x1="188.7635" y1="49.8974" x2="228.8772" y2="49.8974">
		<stop  offset="0" style="stop-color:#FFFFFF"/>
		<stop  offset="1" style="stop-color:#000000"/>
	</linearGradient>
	<path class="st3" d="M210.1,100h-2.5c-10.4,0-18.8-8.4-18.8-18.8V18.6c0-10.4,8.4-18.8,18.8-18.8h2.5c10.4,0,18.8,8.4,18.8,18.8
		v62.7C228.9,91.6,220.5,100,210.1,100z"/>
	<linearGradient id="SVGID_4_" gradientUnits="userSpaceOnUse" x1="271.2194" y1="49.8974" x2="311.3331" y2="49.8974">
		<stop  offset="0" style="stop-color:#FFFFFF"/>
		<stop  offset="1" style="stop-color:#000000"/>
	</linearGradient>
	<path class="st4" d="M292.5,100H290c-10.4,0-18.8-8.4-18.8-18.8V18.6c0-10.4,8.4-18.8,18.8-18.8h2.5c10.4,0,18.8,8.4,18.8,18.8
		v62.7C311.3,91.6,302.9,100,292.5,100z"/>
	<linearGradient id="SVGID_5_" gradientUnits="userSpaceOnUse" x1="355.9039" y1="49.8974" x2="396.0176" y2="49.8974">
		<stop  offset="0" style="stop-color:#FFFFFF"/>
		<stop  offset="1" style="stop-color:#000000"/>
	</linearGradient>
	<path class="st5" d="M377.2,100h-2.5c-10.4,0-18.8-8.4-18.8-18.8V18.6c0-10.4,8.4-18.8,18.8-18.8h2.5c10.4,0,18.8,8.4,18.8,18.8
		v62.7C396,91.6,387.6,100,377.2,100z"/>
	<linearGradient id="SVGID_6_" gradientUnits="userSpaceOnUse" x1="438.3599" y1="49.8974" x2="478.4736" y2="49.8974">
		<stop  offset="0" style="stop-color:#FFFFFF"/>
		<stop  offset="1" style="stop-color:#000000"/>
	</linearGradient>
	<path class="st6" d="M459.7,100h-2.5c-10.4,0-18.8-8.4-18.8-18.8V18.6c0-10.4,8.4-18.8,18.8-18.8h2.5c10.4,0,18.8,8.4,18.8,18.8
		v62.7C478.5,91.6,470.1,100,459.7,100z"/>
	<linearGradient id="SVGID_7_" gradientUnits="userSpaceOnUse" x1="523.0444" y1="49.8974" x2="563.1581" y2="49.8974">
		<stop  offset="0" style="stop-color:#FFFFFF"/>
		<stop  offset="1" style="stop-color:#000000"/>
	</linearGradient>
	<path class="st7" d="M544.3,100h-2.5c-10.4,0-18.8-8.4-18.8-18.8V18.6c0-10.4,8.4-18.8,18.8-18.8h2.5c10.4,0,18.8,8.4,18.8,18.8
		v62.7C563.2,91.6,554.7,100,544.3,100z"/>
	<linearGradient id="SVGID_8_" gradientUnits="userSpaceOnUse" x1="605.5004" y1="49.8974" x2="645.6141" y2="49.8974">
		<stop  offset="0" style="stop-color:#FFFFFF"/>
		<stop  offset="1" style="stop-color:#000000"/>
	</linearGradient>
	<path class="st8" d="M626.8,100h-2.5c-10.4,0-18.8-8.4-18.8-18.8V18.6c0-10.4,8.4-18.8,18.8-18.8h2.5c10.4,0,18.8,8.4,18.8,18.8
		v62.7C645.6,91.6,637.2,100,626.8,100z"/>
	<linearGradient id="SVGID_9_" gradientUnits="userSpaceOnUse" x1="690.1849" y1="49.8974" x2="730.2986" y2="49.8974">
		<stop  offset="0" style="stop-color:#FFFFFF"/>
		<stop  offset="1" style="stop-color:#000000"/>
	</linearGradient>
	<path class="st9" d="M711.5,100H709c-10.4,0-18.8-8.4-18.8-18.8V18.6c0-10.4,8.4-18.8,18.8-18.8h2.5c10.4,0,18.8,8.4,18.8,18.8
		v62.7C730.3,91.6,721.9,100,711.5,100z"/>
	<linearGradient id="SVGID_10_" gradientUnits="userSpaceOnUse" x1="771.5747" y1="49.8974" x2="811.6884" y2="49.8974">
		<stop  offset="0" style="stop-color:#FFFFFF"/>
		<stop  offset="1" style="stop-color:#000000"/>
	</linearGradient>
	<path class="st10" d="M792.9,100h-2.5c-10.4,0-18.8-8.4-18.8-18.8V18.6c0-10.4,8.4-18.8,18.8-18.8h2.5c10.4,0,18.8,8.4,18.8,18.8
		v62.7C811.7,91.6,803.3,100,792.9,100z"/>
	<linearGradient id="SVGID_11_" gradientUnits="userSpaceOnUse" x1="856.2592" y1="49.8974" x2="896.3729" y2="49.8974">
		<stop  offset="0" style="stop-color:#FFFFFF"/>
		<stop  offset="1" style="stop-color:#000000"/>
	</linearGradient>
	<path class="st11" d="M876.3,100L876.3,100c-11.1,0-20.1-9-20.1-20.1V19.8c0-11.1,9-20.1,20.1-20.1h0c11.1,0,20.1,9,20.1,20.1V80
		C896.4,91.1,887.4,100,876.3,100z"/>
	<linearGradient id="SVGID_12_" gradientUnits="userSpaceOnUse" x1="938.7151" y1="49.8974" x2="978.8289" y2="49.8974">
		<stop  offset="0" style="stop-color:#FFFFFF"/>
		<stop  offset="1" style="stop-color:#000000"/>
	</linearGradient>
	<path class="st12" d="M958.8,100L958.8,100c-11.1,0-20.1-9-20.1-20.1V19.8c0-11.1,9-20.1,20.1-20.1h0c11.1,0,20.1,9,20.1,20.1V80
		C978.8,91.1,969.8,100,958.8,100z"/>
</g>
<g id="Слой_2">
	<g>
		<polygon class="st13" points="998.9,55.5 998.9,739.6 0.5,739.6 0.5,55.5 16.3,55.5 16.3,106.7 63.1,106.7 63.1,55.5 99.9,55.5 
			99.9,106.7 146.7,106.7 146.7,55.5 183.5,55.5 183.5,106.7 230.3,106.7 230.3,55.5 267.2,55.5 267.2,106.7 314,106.7 314,55.5 
			350.8,55.5 350.8,106.7 397.6,106.7 397.6,55.5 434.5,55.5 434.5,106.7 481.3,106.7 481.3,55.5 518.1,55.5 518.1,106.7 
			564.9,106.7 564.9,55.5 601.8,55.5 601.8,106.7 648.6,106.7 648.6,55.5 685.4,55.5 685.4,106.7 732.2,106.7 732.2,55.5 
			769.1,55.5 769.1,106.7 815.9,106.7 815.9,55.5 852.7,55.5 852.7,106.7 899.5,106.7 899.5,55.5 936.3,55.5 936.3,106.7 
			983.1,106.7 983.1,55.5 		"/>
	</g>
</g>
</svg>
