<svg xmlns="http://www.w3.org/2000/svg" viewBox="0 0 1000 1000"><defs><style>.cls-1{fill:#f3651b;}.cls-2{fill:#fff;}</style></defs><g id="Слой_2" data-name="Слой 2"><g id="Слой_1-2" data-name="Слой 1"><rect class="cls-1" width="1000" height="1000" rx="270.42"/><g id="Слой_2-2" data-name="Слой 2"><g id="Слой_2-2-2" data-name="Слой 2-2"><path class="cls-2" d="M855,588.14a40.06,40.06,0,0,0,40-40h0a58.25,58.25,0,0,0-10.76-33.84h0L754.65,298.64a41.89,41.89,0,0,0-35.92-20.32H694.32V161H303.52V278.32H280.37a41.91,41.91,0,0,0-36,20.42l-81,135.66H356.33V212.6H641.51V434.4h98.58c15.17,0,28,12,28.16,27.18a27.57,27.57,0,0,1-27.15,28H162.55A58.55,58.55,0,0,0,104,548.1V678.64a58.54,58.54,0,0,0,58.54,58.54h36.09a477.16,477.16,0,0,0-11.47,102.1H811.85a475.9,475.9,0,0,0-11.48-102.1h36.09A58.54,58.54,0,0,0,895,678.64h0V644.47H767.76a325.75,325.75,0,0,0-35-56.33ZM176.77,644.47a28.17,28.17,0,0,1,0-56.33h89.45a326.42,326.42,0,0,0-35,56.33ZM749.65,784.13H249.37s10.14-101.38,85.6-196H664.05C739.5,682.75,749.65,784.13,749.65,784.13Z"/></g></g></g></g></svg>