<svg xmlns="http://www.w3.org/2000/svg" viewBox="0 0 674 578"><defs><style>.cls-1{fill:#f3651b;}</style></defs><g id="Слой_2" data-name="Слой 2"><g id="Слой_2-2" data-name="Слой 2"><path class="cls-1" d="M639.88,364A34.13,34.13,0,0,0,674,329.88h0a49.6,49.6,0,0,0-9.17-28.83l0,0L554.41,117.32A35.71,35.71,0,0,0,523.8,100H503V0H170V100H150.27a35.71,35.71,0,0,0-30.66,17.4L50.6,233H215V44H458V233h84c12.93,0,23.84,10.23,24,23.16A23.49,23.49,0,0,1,542.5,280H49.88A49.89,49.89,0,0,0,0,329.88V441.12A49.88,49.88,0,0,0,49.88,491H80.63a406.46,406.46,0,0,0-9.77,87H603.15a405.78,405.78,0,0,0-9.78-87h30.75A49.88,49.88,0,0,0,674,441.12V412H565.58a277.45,277.45,0,0,0-29.79-48ZM62,412a24,24,0,0,1,0-48h76.22a278,278,0,0,0-29.8,48ZM550.15,531H123.86s8.64-86.38,72.94-167H477.21C541.5,444.62,550.15,531,550.15,531Z"/></g></g></svg>