<?xml version="1.0" encoding="utf-8"?>
<!-- Generator: Adobe Illustrator 24.3.0, SVG Export Plug-In . SVG Version: 6.00 Build 0)  -->
<svg version="1.1" id="Слой_1" xmlns="http://www.w3.org/2000/svg" xmlns:xlink="http://www.w3.org/1999/xlink" x="0px" y="0px"
	 viewBox="0 0 160 154" style="enable-background:new 0 0 160 154;" xml:space="preserve">
<style type="text/css">
	.st0{fill:#FFFFFF;}
	.st1{fill:none;stroke:#F3651B;}
	.st2{fill:none;stroke:#F3651B;stroke-linejoin:round;}
</style>
<rect class="st0" width="160" height="154"/>
<path class="st1" d="M24.8,21.7h110.4c1.4,0,2.5,1.1,2.5,2.5v109.9c0,1.4-1.1,2.5-2.5,2.5H24.8c-1.4,0-2.5-1.1-2.5-2.5V24.2
	C22.3,22.8,23.4,21.7,24.8,21.7z"/>
<path class="st2" d="M116.5,78.7l-35.4,35.4c-0.9,0.9-2.4,0.9-3.3,0l-1.7-1.7c-0.9-0.9-0.9-2.4,0-3.3l30.3-30.4
	c0.9-0.9,0.9-2.4,0-3.3L76,45c-0.9-0.9-0.9-2.4,0-3.3l1.7-1.7c0.9-0.9,2.4-0.9,3.3,0l35.4,35.4C117.4,76.2,117.4,77.7,116.5,78.7z"
	/>
<path class="st2" d="M87.7,78.7l-35.4,35.4c-0.9,0.9-2.4,0.9-3.3,0l-1.7-1.7c-0.9-0.9-0.9-2.4,0-3.3l30.3-30.4
	c0.9-0.9,0.9-2.4,0-3.3L47.2,45c-0.9-0.9-0.9-2.4,0-3.3l1.7-1.7c0.9-0.9,2.4-0.9,3.3,0l35.4,35.4C88.6,76.2,88.6,77.7,87.7,78.7z"/>
</svg>
