<svg width="22" height="24" viewBox="0 0 22 24" fill="none" xmlns="http://www.w3.org/2000/svg">
<path d="M14.7812 8.1875C14.6127 10.4593 12.8905 12.3125 10.9999 12.3125C9.10929 12.3125 7.38409 10.4597 7.21866 8.1875C7.04679 5.82422 8.72257 4.0625 10.9999 4.0625C13.2773 4.0625 14.953 5.86719 14.7812 8.1875Z" stroke="#6C757D" stroke-width="2" stroke-linecap="round" stroke-linejoin="round"/>
<path d="M11.0001 14.979C7.26182 14.979 3.46768 17.0415 2.76557 20.9345C2.68092 21.4037 2.94647 21.854 3.4376 21.854H18.5626C19.0542 21.854 19.3197 21.4037 19.2351 20.9345C18.5325 17.0415 14.7384 14.979 11.0001 14.979Z" stroke="#6C757D" stroke-width="2" stroke-miterlimit="10"/>
<path d="M18 8C20.2091 8 22 6.20914 22 4C22 1.79086 20.2091 0 18 0C15.7909 0 14 1.79086 14 4C14 6.20914 15.7909 8 18 8Z" fill="#E20808"/>
</svg>
