<svg width="160" height="154" viewBox="0 0 160 154" fill="none" xmlns="http://www.w3.org/2000/svg">
<path d="M0 0H160V154H0V0Z" fill="white"/>
<rect x="22.3184" y="21.6562" width="115.364" height="114.953" rx="2.5" stroke="#6C757D"/>
<path d="M54 41.75H106C106.138 41.75 106.25 41.8619 106.25 42V91.6667V116C106.25 116.138 106.138 116.25 106 116.25H60.0714H54C53.8619 116.25 53.75 116.138 53.75 116V42C53.75 41.8619 53.8619 41.75 54 41.75Z" stroke="#6C757D" stroke-width="1.5"/>
<path d="M83.4707 108.424C83.4707 108.53 83.4424 108.625 83.3857 108.708C83.3301 108.791 83.2544 108.856 83.1587 108.903C83.27 108.951 83.3579 109.021 83.4224 109.112C83.4878 109.204 83.5205 109.308 83.5205 109.424C83.5205 109.609 83.458 109.756 83.333 109.865C83.209 109.975 83.0454 110.029 82.8423 110.029C82.6372 110.029 82.4727 109.975 82.3486 109.865C82.2256 109.755 82.1641 109.608 82.1641 109.424C82.1641 109.309 82.1953 109.205 82.2578 109.112C82.3213 109.02 82.4087 108.949 82.52 108.901C82.4253 108.854 82.3506 108.79 82.2959 108.707C82.2412 108.624 82.2139 108.529 82.2139 108.424C82.2139 108.244 82.2715 108.102 82.3867 107.996C82.502 107.891 82.6538 107.838 82.8423 107.838C83.0298 107.838 83.1812 107.891 83.2964 107.996C83.4126 108.102 83.4707 108.244 83.4707 108.424ZM83.2495 109.418C83.2495 109.299 83.2114 109.202 83.1353 109.127C83.0601 109.052 82.9614 109.014 82.8394 109.014C82.7173 109.014 82.6191 109.051 82.5449 109.125C82.4717 109.2 82.4351 109.297 82.4351 109.418C82.4351 109.54 82.4707 109.635 82.542 109.704C82.6143 109.773 82.7144 109.808 82.8423 109.808C82.9692 109.808 83.0688 109.773 83.1411 109.704C83.2134 109.634 83.2495 109.539 83.2495 109.418ZM82.8423 108.061C82.7358 108.061 82.6494 108.094 82.583 108.16C82.5176 108.226 82.4849 108.315 82.4849 108.428C82.4849 108.537 82.5171 108.625 82.5815 108.692C82.647 108.758 82.7339 108.792 82.8423 108.792C82.9507 108.792 83.0371 108.758 83.1016 108.692C83.167 108.625 83.1997 108.537 83.1997 108.428C83.1997 108.32 83.166 108.231 83.0986 108.163C83.0312 108.095 82.9458 108.061 82.8423 108.061ZM85.1553 108.424C85.1553 108.53 85.127 108.625 85.0703 108.708C85.0146 108.791 84.939 108.856 84.8433 108.903C84.9546 108.951 85.0425 109.021 85.1069 109.112C85.1724 109.204 85.2051 109.308 85.2051 109.424C85.2051 109.609 85.1426 109.756 85.0176 109.865C84.8936 109.975 84.73 110.029 84.5269 110.029C84.3218 110.029 84.1572 109.975 84.0332 109.865C83.9102 109.755 83.8486 109.608 83.8486 109.424C83.8486 109.309 83.8799 109.205 83.9424 109.112C84.0059 109.02 84.0933 108.949 84.2046 108.901C84.1099 108.854 84.0352 108.79 83.9805 108.707C83.9258 108.624 83.8984 108.529 83.8984 108.424C83.8984 108.244 83.9561 108.102 84.0713 107.996C84.1865 107.891 84.3384 107.838 84.5269 107.838C84.7144 107.838 84.8657 107.891 84.981 107.996C85.0972 108.102 85.1553 108.244 85.1553 108.424ZM84.9341 109.418C84.9341 109.299 84.896 109.202 84.8198 109.127C84.7446 109.052 84.646 109.014 84.5239 109.014C84.4019 109.014 84.3037 109.051 84.2295 109.125C84.1562 109.2 84.1196 109.297 84.1196 109.418C84.1196 109.54 84.1553 109.635 84.2266 109.704C84.2988 109.773 84.3989 109.808 84.5269 109.808C84.6538 109.808 84.7534 109.773 84.8257 109.704C84.8979 109.634 84.9341 109.539 84.9341 109.418ZM84.5269 108.061C84.4204 108.061 84.334 108.094 84.2676 108.16C84.2021 108.226 84.1694 108.315 84.1694 108.428C84.1694 108.537 84.2017 108.625 84.2661 108.692C84.3315 108.758 84.4185 108.792 84.5269 108.792C84.6353 108.792 84.7217 108.758 84.7861 108.692C84.8516 108.625 84.8843 108.537 84.8843 108.428C84.8843 108.32 84.8506 108.231 84.7832 108.163C84.7158 108.095 84.6304 108.061 84.5269 108.061ZM86.8838 109.09C86.8838 109.408 86.8296 109.644 86.7212 109.798C86.6128 109.952 86.4434 110.029 86.2129 110.029C85.9854 110.029 85.8169 109.954 85.7075 109.804C85.5981 109.652 85.5415 109.427 85.5376 109.127V108.765C85.5376 108.452 85.5918 108.219 85.7002 108.066C85.8086 107.914 85.9785 107.838 86.21 107.838C86.4395 107.838 86.6084 107.912 86.7168 108.059C86.8252 108.206 86.8809 108.432 86.8838 108.739V109.09ZM86.6128 108.72C86.6128 108.49 86.5806 108.323 86.5161 108.219C86.4517 108.113 86.3496 108.061 86.21 108.061C86.0713 108.061 85.9702 108.113 85.9067 108.217C85.8433 108.322 85.8105 108.482 85.8086 108.699V109.133C85.8086 109.363 85.8418 109.534 85.9082 109.644C85.9756 109.753 86.0771 109.808 86.2129 109.808C86.3467 109.808 86.4458 109.756 86.5103 109.653C86.5757 109.549 86.6099 109.386 86.6128 109.164V108.72ZM88.5684 109.09C88.5684 109.408 88.5142 109.644 88.4058 109.798C88.2974 109.952 88.1279 110.029 87.8975 110.029C87.6699 110.029 87.5015 109.954 87.3921 109.804C87.2827 109.652 87.2261 109.427 87.2222 109.127V108.765C87.2222 108.452 87.2764 108.219 87.3848 108.066C87.4932 107.914 87.6631 107.838 87.8945 107.838C88.124 107.838 88.293 107.912 88.4014 108.059C88.5098 108.206 88.5654 108.432 88.5684 108.739V109.09ZM88.2974 108.72C88.2974 108.49 88.2651 108.323 88.2007 108.219C88.1362 108.113 88.0342 108.061 87.8945 108.061C87.7559 108.061 87.6548 108.113 87.5913 108.217C87.5278 108.322 87.4951 108.482 87.4932 108.699V109.133C87.4932 109.363 87.5264 109.534 87.5928 109.644C87.6602 109.753 87.7617 109.808 87.8975 109.808C88.0312 109.808 88.1304 109.756 88.1948 109.653C88.2603 109.549 88.2944 109.386 88.2974 109.164V108.72ZM89.8062 110H89.5337V108.194L88.9873 108.395V108.148L89.7637 107.857H89.8062V110ZM91.9976 110H90.6001V109.805L91.3384 108.985C91.4478 108.861 91.5229 108.76 91.564 108.683C91.606 108.605 91.627 108.524 91.627 108.441C91.627 108.33 91.5933 108.239 91.5259 108.167C91.4585 108.096 91.3687 108.061 91.2563 108.061C91.1216 108.061 91.0166 108.099 90.9414 108.176C90.8672 108.252 90.8301 108.359 90.8301 108.496H90.5591C90.5591 108.299 90.6221 108.141 90.748 108.02C90.875 107.898 91.0444 107.838 91.2563 107.838C91.4546 107.838 91.6113 107.89 91.7266 107.995C91.8418 108.098 91.8994 108.236 91.8994 108.409C91.8994 108.619 91.7656 108.869 91.498 109.159L90.9268 109.779H91.9976V110ZM92.6787 108.802H92.8823C93.0103 108.8 93.1108 108.766 93.1841 108.701C93.2573 108.635 93.2939 108.547 93.2939 108.436C93.2939 108.186 93.1694 108.061 92.9204 108.061C92.8032 108.061 92.7095 108.094 92.6392 108.162C92.5698 108.228 92.5352 108.316 92.5352 108.427H92.2642C92.2642 108.258 92.3257 108.118 92.4487 108.006C92.5728 107.894 92.73 107.838 92.9204 107.838C93.1216 107.838 93.2793 107.891 93.3936 107.998C93.5078 108.104 93.5649 108.252 93.5649 108.441C93.5649 108.534 93.5347 108.624 93.4741 108.711C93.4146 108.798 93.333 108.863 93.2295 108.906C93.3467 108.943 93.437 109.004 93.5005 109.09C93.5649 109.176 93.5972 109.281 93.5972 109.405C93.5972 109.597 93.5347 109.749 93.4097 109.861C93.2847 109.973 93.1221 110.029 92.9219 110.029C92.7217 110.029 92.5586 109.975 92.4326 109.867C92.3076 109.758 92.2451 109.615 92.2451 109.438H92.5176C92.5176 109.55 92.5542 109.64 92.6274 109.707C92.7007 109.774 92.7988 109.808 92.9219 109.808C93.0527 109.808 93.1528 109.774 93.2222 109.706C93.2915 109.637 93.3262 109.539 93.3262 109.411C93.3262 109.287 93.2881 109.192 93.2119 109.125C93.1357 109.059 93.0259 109.025 92.8823 109.023H92.6787V108.802ZM95.1133 109.284H95.4092V109.505H95.1133V110H94.8408V109.505H93.8696V109.345L94.8247 107.867H95.1133V109.284ZM94.1772 109.284H94.8408V108.238L94.8086 108.296L94.1772 109.284ZM95.7783 108.931L95.8867 107.867H96.9795V108.118H96.1167L96.0522 108.699C96.1567 108.638 96.2754 108.607 96.4082 108.607C96.6025 108.607 96.7568 108.671 96.8711 108.8C96.9854 108.928 97.0425 109.102 97.0425 109.32C97.0425 109.54 96.9829 109.713 96.8638 109.84C96.7456 109.966 96.5801 110.029 96.3672 110.029C96.1787 110.029 96.0249 109.977 95.9058 109.873C95.7866 109.768 95.7188 109.624 95.7021 109.439H95.9585C95.9751 109.561 96.0186 109.653 96.0889 109.716C96.1592 109.777 96.252 109.808 96.3672 109.808C96.4932 109.808 96.5918 109.765 96.6631 109.679C96.7354 109.593 96.7715 109.475 96.7715 109.323C96.7715 109.181 96.7324 109.066 96.6543 108.98C96.5771 108.894 96.4741 108.85 96.3452 108.85C96.2271 108.85 96.1343 108.876 96.0669 108.928L95.9951 108.986L95.7783 108.931ZM98.4019 107.866V108.096H98.3521C98.1411 108.1 97.9731 108.162 97.8481 108.283C97.7231 108.404 97.6509 108.575 97.6313 108.794C97.7437 108.666 97.897 108.601 98.0913 108.601C98.2769 108.601 98.4248 108.667 98.5352 108.797C98.6465 108.928 98.7021 109.097 98.7021 109.304C98.7021 109.524 98.6421 109.7 98.522 109.832C98.4028 109.963 98.2427 110.029 98.0415 110.029C97.8374 110.029 97.6719 109.951 97.5449 109.795C97.418 109.638 97.3545 109.436 97.3545 109.188V109.084C97.3545 108.692 97.438 108.392 97.605 108.185C97.7729 107.977 98.0225 107.871 98.3535 107.866H98.4019ZM98.0459 108.827C97.9531 108.827 97.8677 108.854 97.7896 108.91C97.7114 108.966 97.6572 109.036 97.627 109.12V109.219C97.627 109.395 97.6665 109.537 97.7456 109.644C97.8247 109.751 97.9233 109.805 98.0415 109.805C98.1636 109.805 98.2593 109.76 98.3286 109.67C98.3989 109.581 98.4341 109.463 98.4341 109.317C98.4341 109.171 98.3984 109.053 98.3271 108.963C98.2568 108.872 98.1631 108.827 98.0459 108.827ZM100.4 108.02L99.5166 110H99.2324L100.113 108.09H98.9585V107.867H100.4V108.02Z" fill="#6C757D"/>
<path d="M63 106.562C62.0684 106.562 61.3125 107.282 61.3125 108.168C61.3125 109.188 62.4375 110.803 62.8506 111.361C62.8677 111.385 62.8902 111.404 62.9162 111.417C62.9421 111.43 62.9709 111.437 63 111.437C63.0291 111.437 63.0579 111.43 63.0838 111.417C63.1098 111.404 63.1323 111.385 63.1494 111.361C63.5625 110.803 64.6875 109.188 64.6875 108.168C64.6875 107.282 63.9316 106.562 63 106.562Z" stroke="#6C757D" stroke-width="0.3" stroke-linecap="round" stroke-linejoin="round"/>
<path d="M63 108.812C63.3107 108.812 63.5625 108.561 63.5625 108.25C63.5625 107.939 63.3107 107.688 63 107.688C62.6893 107.688 62.4375 107.939 62.4375 108.25C62.4375 108.561 62.6893 108.812 63 108.812Z" stroke="#6C757D" stroke-width="0.3" stroke-linecap="round" stroke-linejoin="round"/>
<path d="M97.0625 55.2812H63.9375C61.1933 55.2812 58.9688 57.5058 58.9688 60.25V86.75C58.9688 89.4942 61.1933 91.7188 63.9375 91.7188H97.0625C99.8067 91.7188 102.031 89.4942 102.031 86.75V60.25C102.031 57.5058 99.8067 55.2812 97.0625 55.2812Z" stroke="#6C757D" stroke-width="0.3" stroke-linejoin="round"/>
<path d="M88.7812 68.5312C90.6107 68.5312 92.0938 67.0482 92.0938 65.2188C92.0938 63.3893 90.6107 61.9062 88.7812 61.9062C86.9518 61.9062 85.4688 63.3893 85.4688 65.2188C85.4688 67.0482 86.9518 68.5312 88.7812 68.5312Z" stroke="#6C757D" stroke-width="0.3" stroke-miterlimit="10"/>
<path d="M85.4688 81.759L76.084 72.3918C75.4868 71.7948 74.6842 71.4483 73.8401 71.4233C72.996 71.3983 72.1743 71.6966 71.5428 72.2573L58.9688 83.4369" stroke="#6C757D" stroke-width="0.3" stroke-linecap="round" stroke-linejoin="round"/>
<path d="M77.1875 91.7187L89.9551 78.9511C90.539 78.366 91.3206 78.0204 92.1462 77.9821C92.9719 77.9438 93.7821 78.2156 94.4177 78.744L102.031 85.0937" stroke="#6C757D" stroke-width="0.3" stroke-linecap="round" stroke-linejoin="round"/>
</svg>
