<svg width="160" height="154" viewBox="0 0 160 154" fill="none" xmlns="http://www.w3.org/2000/svg">
<path d="M0 0H160V154H0V0Z" fill="white"/>
<rect x="22.3184" y="21.657" width="115.364" height="114.953" rx="2.5" stroke="#6C757D"/>
<path d="M87.5 101.5L105.5 84L118.355 71.8998C115.66 71.3105 112.86 71 109.987 71C88.4483 71 70.9874 88.4609 70.9874 110C70.9874 112.425 71.2087 114.798 71.6322 117.1L87.5 101.5Z" fill="#6C757D"/>
<path d="M87.5 101.5L105.5 84L118.355 71.8998C115.66 71.3105 112.86 71 109.987 71C88.4483 71 70.9874 88.4609 70.9874 110C70.9874 112.425 71.2087 114.798 71.6322 117.1L87.5 101.5Z" fill="url(#paint0_linear)"/>
<path d="M105.5 84C87.5 101.5 105.5 84 87.5 101.5M105.5 84C118.355 71.8998 105.5 84 118.355 71.8998M105.5 84L87.5 101.5M105.5 84L118.355 71.8998M87.5 101.5C71.6322 117.1 87.5 101.5 71.6322 117.1M87.5 101.5L71.6322 117.1M71.6322 117.1C71.2087 114.798 70.9874 112.425 70.9874 110C70.9874 88.4609 88.4483 71 109.987 71C112.86 71 115.66 71.3105 118.355 71.8998M71.6322 117.1C54.1144 113.27 41 97.6667 41 79C41 57.4609 58.4609 40 80 40C99.1143 40 115.017 53.7508 118.355 71.8998" stroke="#6C757D" stroke-width="1.5"/>
<defs>
<linearGradient id="paint0_linear" x1="100.5" y1="93.5" x2="6" y2="8.5" gradientUnits="userSpaceOnUse">
<stop stop-color="white"/>
<stop offset="1" stop-color="white" stop-opacity="0"/>
</linearGradient>
</defs>
</svg>
