<svg width="160" height="154" viewBox="0 0 160 154" fill="none" xmlns="http://www.w3.org/2000/svg">
<path d="M0 0H160V154H0V0Z" fill="white"/>
<path d="M56 48V45H77" stroke="#6C757D" stroke-width="1.5"/>
<path d="M90.5 45H107.5V116.5H56.5V114.5" stroke="#6C757D" stroke-width="1.5"/>
<path d="M107 46.5H92.5M78 42L92.5 45.5L86 116L65 112L78 42Z" stroke="#6C757D" stroke-width="1.5"/>
<path d="M102 61.5H91" stroke="#6C757D" stroke-width="1.5"/>
<path d="M102 68H90.5" stroke="#6C757D" stroke-width="1.5"/>
<path d="M102 75H90" stroke="#6C757D" stroke-width="1.5"/>
<path d="M102 82H89.5" stroke="#6C757D" stroke-width="1.5"/>
<path d="M102 89H89" stroke="#6C757D" stroke-width="1.5"/>
<path d="M102 96H88" stroke="#6C757D" stroke-width="1.5"/>
<path d="M102 102H88" stroke="#6C757D" stroke-width="1.5"/>
<path d="M102 109H87" stroke="#6C757D" stroke-width="1.5"/>
<path d="M61 53H52" stroke="#6C757D" stroke-width="1.8"/>
<path d="M61 60H52" stroke="#6C757D" stroke-width="1.8"/>
<path d="M61 67H52" stroke="#6C757D" stroke-width="1.8"/>
<path d="M61 74H52" stroke="#6C757D" stroke-width="1.8"/>
<path d="M61 81H52" stroke="#6C757D" stroke-width="1.8"/>
<path d="M61 88H52" stroke="#6C757D" stroke-width="1.8"/>
<path d="M61 96H52" stroke="#6C757D" stroke-width="1.8"/>
<path d="M61 103H52" stroke="#6C757D" stroke-width="1.8"/>
<path d="M61 110H52" stroke="#6C757D" stroke-width="1.8"/>
<rect x="22.3184" y="21.6562" width="115.364" height="114.953" rx="2.5" stroke="#6C757D"/>
</svg>
