<svg width="160" height="154" viewBox="0 0 160 154" fill="none" xmlns="http://www.w3.org/2000/svg">
<path d="M0 0H160V154H0V0Z" fill="white"/>
<rect x="22.3184" y="21.6562" width="115.364" height="114.953" rx="2.5" stroke="#6C757D"/>
<path d="M42.8184 41.8359H117.182C117.32 41.8359 117.432 41.9479 117.432 42.0859V91.127C117.432 91.2306 117.368 91.3235 117.271 91.3605L51.723 116.414C51.6945 116.424 51.6643 116.43 51.6338 116.43H42.8184C42.6803 116.43 42.5684 116.318 42.5684 116.18V42.0859C42.5684 41.9479 42.6803 41.8359 42.8184 41.8359Z" stroke="#6C757D" stroke-width="1.5"/>
<path d="M116.199 91.7371L53.8293 115.216L103.62 74.4849C103.758 74.3715 103.968 74.4364 104.018 74.6084L106.371 82.6762C107.546 86.7057 110.629 89.8988 114.615 91.2143L116.199 91.7371Z" fill="#6C757D"/>
<path d="M116.199 91.7371L53.8293 115.216L103.62 74.4849C103.758 74.3715 103.968 74.4364 104.018 74.6084L106.371 82.6762C107.546 86.7057 110.629 89.8988 114.615 91.2143L116.199 91.7371Z" fill="url(#paint0_linear)"/>
<path d="M116.199 91.7371L53.8293 115.216L103.62 74.4849C103.758 74.3715 103.968 74.4364 104.018 74.6084L106.371 82.6762C107.546 86.7057 110.629 89.8988 114.615 91.2143L116.199 91.7371Z" stroke="#6C757D" stroke-width="1.5"/>
<defs>
<linearGradient id="paint0_linear" x1="117.39" y1="134.948" x2="57.7409" y2="42.6661" gradientUnits="userSpaceOnUse">
<stop offset="0.373918" stop-color="white"/>
<stop offset="1" stop-color="white" stop-opacity="0"/>
</linearGradient>
</defs>
</svg>
