<svg width="160" height="154" viewBox="0 0 160 154" fill="none" xmlns="http://www.w3.org/2000/svg">
<path d="M0 0H160V154H0V0Z" fill="white"/>
<rect x="22.3184" y="21.6562" width="115.364" height="114.953" rx="2.5" stroke="#6C757D"/>
<path d="M95 102H111.5" stroke="#6C757D" stroke-width="2"/>
<path d="M95 97H111.5" stroke="#6C757D" stroke-width="2"/>
<path d="M72 102H88.5" stroke="#6C757D" stroke-width="2"/>
<path d="M72 91H88.5" stroke="#6C757D" stroke-width="2"/>
<path d="M95 91H111.5" stroke="#6C757D" stroke-width="2"/>
<path d="M72 97H88.5" stroke="#6C757D" stroke-width="2"/>
<path d="M49 102H65.5" stroke="#6C757D" stroke-width="2"/>
<path d="M49 97H65.5" stroke="#6C757D" stroke-width="2"/>
<path d="M49 91H65.5" stroke="#6C757D" stroke-width="2"/>
<path d="M75.5 54.9999C75.5 54.9999 75.5 52.9998 76.5 51.4999C77.5 50 79 49.4999 80 49.5C81 49.5001 82.5 50 83.5 51.4999C84.5 52.9998 84.5 54.9999 84.5 54.9999" stroke="#6C757D"/>
<path d="M118.25 55V91.3333V109C118.25 109.138 118.138 109.25 118 109.25H51.2143H42C41.8619 109.25 41.75 109.138 41.75 109V55C41.75 54.8619 41.8619 54.75 42 54.75H61.5H118C118.138 54.75 118.25 54.8619 118.25 55Z" stroke="#6C757D" stroke-width="1.5"/>
<path d="M47 55H69" stroke="white" stroke-width="2"/>
<path d="M76 55H84" stroke="white" stroke-width="2"/>
<path d="M91.5 54.5H113" stroke="white" stroke-width="2"/>
<path d="M50 51V59.5" stroke="#6C757D" stroke-width="2"/>
<path d="M64 51V59.5" stroke="#6C757D" stroke-width="2"/>
<path d="M96 51V59.5" stroke="#6C757D" stroke-width="2"/>
<path d="M103 51V59.5" stroke="#6C757D" stroke-width="2"/>
<path d="M110 51V59.5" stroke="#6C757D" stroke-width="2"/>
<path d="M57 51V59.5" stroke="#6C757D" stroke-width="2"/>
</svg>
